<svg width="54" height="54" viewBox="0 0 54 54" fill="none" xmlns="http://www.w3.org/2000/svg">
<rect width="54" height="54" rx="9.32958" fill="#064749"/>
<g clip-path="url(#clip0_14_14191)">
<path d="M38.9372 24.2053C38.7792 23.7193 38.3482 23.3753 37.8402 23.3293L30.9121 22.7003L28.1741 16.2901C27.972 15.8191 27.512 15.5151 27 15.5151C26.4881 15.5151 26.0279 15.8191 25.827 16.2901L23.089 22.7003L16.1598 23.3293C15.6519 23.3762 15.2218 23.7202 15.0628 24.2053C14.9048 24.6913 15.0507 25.2243 15.4349 25.5612L20.672 30.1534L19.1278 36.9544C19.0149 37.4545 19.2089 37.9716 19.6239 38.2715C19.8469 38.4336 20.1089 38.5145 20.3719 38.5145C20.5978 38.5145 20.824 38.4544 21.0259 38.3336L27 34.7615L32.973 38.3336C33.4112 38.5954 33.9622 38.5714 34.3762 38.2715C34.7911 37.9716 34.9852 37.4545 34.8722 36.9544L33.3281 30.1534L38.5652 25.5612C38.9491 25.2243 39.0953 24.6924 38.9372 24.2053Z" fill="white"/>
</g>
<defs>
<clipPath id="clip0_14_14191">
<rect width="24" height="24" fill="white" transform="translate(15 15)"/>
</clipPath>
</defs>
</svg>
