<svg width="54" height="54" viewBox="0 0 54 54" fill="none" xmlns="http://www.w3.org/2000/svg">
<rect x="0.812852" y="0.812852" width="52.3743" height="52.3743" rx="8.51673" fill="#064749"/>
<rect x="0.812852" y="0.812852" width="52.3743" height="52.3743" rx="8.51673" stroke="#064749" stroke-width="1.6257"/>
<path d="M27 19V17M27 35V37M21.4142 21.4142L20 20M32.728 32.728L34.1422 34.1422M19 27H17M35 27H37M32.7285 21.4142L34.1427 20M21.4147 32.728L20.0005 34.1422M27 32C24.2386 32 22 29.7614 22 27C22 24.2386 24.2386 22 27 22C29.7614 22 32 24.2386 32 27C32 29.7614 29.7614 32 27 32Z" stroke="#FCFCFC" stroke-width="2" stroke-linecap="round" stroke-linejoin="round"/>
</svg>
