<svg width="26" height="20" viewBox="0 0 26 20" fill="none" xmlns="http://www.w3.org/2000/svg">
<path d="M3 2.5L10.6345 8.26533L10.6371 8.26744C11.4848 8.88911 11.9089 9.20012 12.3734 9.32027C12.784 9.42647 13.2156 9.42647 13.6262 9.32027C14.0912 9.20001 14.5165 8.88809 15.3657 8.26533C15.3657 8.26533 20.2626 4.50742 23 2.5M1.75 14.7502V5.25024C1.75 3.85011 1.75 3.14953 2.02248 2.61475C2.26217 2.14434 2.64434 1.76217 3.11475 1.52248C3.64953 1.25 4.35011 1.25 5.75024 1.25H20.2502C21.6504 1.25 22.3495 1.25 22.8842 1.52248C23.3547 1.76217 23.7381 2.14434 23.9778 2.61475C24.25 3.149 24.25 3.84874 24.25 5.24614V14.7545C24.25 16.1519 24.25 16.8506 23.9778 17.3849C23.7381 17.8553 23.3547 18.2381 22.8842 18.4778C22.35 18.75 21.6513 18.75 20.2539 18.75H5.74614C4.34874 18.75 3.649 18.75 3.11475 18.4778C2.64434 18.2381 2.26217 17.8553 2.02248 17.3849C1.75 16.8501 1.75 16.1504 1.75 14.7502Z" stroke="#064749" stroke-width="2" stroke-linecap="round" stroke-linejoin="round"/>
</svg>
