<svg width="20" height="25" viewBox="0 0 20 25" fill="none" xmlns="http://www.w3.org/2000/svg">
<path d="M1.25 10.4036C1.25 16.4683 6.55559 21.4837 8.90399 23.4065C9.24008 23.6817 9.41014 23.8209 9.66088 23.8915C9.85613 23.9465 10.1435 23.9465 10.3387 23.8915C10.59 23.8208 10.7588 23.6829 11.0962 23.4067C13.4446 21.4838 18.7499 16.4689 18.7499 10.4041C18.7499 8.10898 17.8281 5.90756 16.1871 4.28465C14.5462 2.66174 12.3207 1.75 10.0001 1.75C7.67946 1.75 5.45376 2.66188 3.81282 4.28479C2.17187 5.9077 1.25 8.10842 1.25 10.4036Z" stroke="#064749" stroke-width="2" stroke-linecap="round" stroke-linejoin="round"/>
<path d="M7.5 9.25C7.5 10.6307 8.61929 11.75 10 11.75C11.3807 11.75 12.5 10.6307 12.5 9.25C12.5 7.86929 11.3807 6.75 10 6.75C8.61929 6.75 7.5 7.86929 7.5 9.25Z" stroke="#064749" stroke-width="2" stroke-linecap="round" stroke-linejoin="round"/>
</svg>
