<svg width="54" height="54" viewBox="0 0 54 54" fill="none" xmlns="http://www.w3.org/2000/svg">
<rect width="54" height="54" rx="9.32958" fill="#064749"/>
<path d="M27 21C26.45 21 25.9792 20.8042 25.5875 20.4125C25.1958 20.0208 25 19.55 25 19C25 18.45 25.1958 17.9792 25.5875 17.5875C25.9792 17.1958 26.45 17 27 17C27.55 17 28.0208 17.1958 28.4125 17.5875C28.8042 17.9792 29 18.45 29 19C29 19.55 28.8042 20.0208 28.4125 20.4125C28.0208 20.8042 27.55 21 27 21ZM24 36V24H19C18.7167 24 18.4792 23.9042 18.2875 23.7125C18.0958 23.5208 18 23.2833 18 23C18 22.7167 18.0958 22.4792 18.2875 22.2875C18.4792 22.0958 18.7167 22 19 22H35C35.2833 22 35.5208 22.0958 35.7125 22.2875C35.9042 22.4792 36 22.7167 36 23C36 23.2833 35.9042 23.5208 35.7125 23.7125C35.5208 23.9042 35.2833 24 35 24H30V36C30 36.2833 29.9042 36.5208 29.7125 36.7125C29.5208 36.9042 29.2833 37 29 37C28.7167 37 28.4792 36.9042 28.2875 36.7125C28.0958 36.5208 28 36.2833 28 36V31H26V36C26 36.2833 25.9042 36.5208 25.7125 36.7125C25.5208 36.9042 25.2833 37 25 37C24.7167 37 24.4792 36.9042 24.2875 36.7125C24.0958 36.5208 24 36.2833 24 36Z" fill="white"/>
</svg>
